<svg xmlns="http://www.w3.org/2000/svg" version="1.1" xmlns:xlink="http://www.w3.org/1999/xlink" xmlns:svgjs="http://svgjs.com/svgjs" width="1440" height="560" preserveAspectRatio="none" viewBox="0 0 1440 560"><g mask="url(&quot;#SvgjsMask1306&quot;)" fill="none"><use xlink:href="#SvgjsG1310" transform="translate(0, 0)" fill="rgba(237, 193, 190, 1)"></use><use xlink:href="#SvgjsG1310" transform="translate(875, 0)" fill="rgba(237, 193, 190, 1)"></use></g><defs><mask id="SvgjsMask1306"><rect width="1440" height="560" fill="#ffffff"></rect></mask><g id="SvgjsG1308"><path d="M4.37 1.9l2.48 0.26-1.16 11.07-2.48-0.26zM14.26 1.15L16.74 1.41l-1.18 11.2-2.48-0.26z"></path><path d="M4.73 5.2l-0.36-3.3L16.79 0.88l-0.33 3.15z"></path><path d="M-0.53 12.58a3.12 2.61 6 1 0 6.22 0.65 3.12 2.61 6 1 0-6.22-0.65"></path><path d="M9.34 11.96a3.12 2.61 6 1 0 6.22 0.65 3.12 2.61 6 1 0-6.22-0.65"></path></g><g id="SvgjsG1307"><path d="M0.34 4.38l3.13 0.33-0.59 5.57L-0.25 9.95z"></path><path d="M5.61 14.11L2.14 10.2l0.58-5.48 4.21-3.19L7.15 7.91z"></path><path d="M6.93 1.53S7.47 4.78 7.14 7.91s-1.54 6.2-1.53 6.2m7.78 1.77l-1.23-0.81c0.02-0.03 1.88-2.91 2.27-6.62 0.39-3.69-1.07-6.9-1.09-6.94l1.33-0.61c0.07 0.14 1.65 3.6 1.22 7.7-0.43 4.08-2.41 7.15-2.5 7.28z"></path><path d="M11.2 13.88l-1.23-0.8c0.01-0.02 1.37-2.13 1.66-4.83 0.28-2.7-0.78-5.02-0.79-5.05l1.33-0.62c0.05 0.11 1.25 2.72 0.91 5.82-0.32 3.07-1.82 5.38-1.88 5.48z"></path><path d="M9.16 11.73l-1.23-0.8c0.01-0.01 0.84-1.31 1.01-2.97 0.17-1.63-0.48-3.07-0.48-3.08l1.33-0.61c0.03 0.07 0.82 1.8 0.61 3.85-0.21 2.02-1.2 3.55-1.24 3.61z"></path></g><g id="SvgjsG1309"><path d="M9.69 3.04c0.91 0.1 1.2 0.88 1.29 1.3l0.73 3.78c0.14 0.81-0.9 1.03-1.05 0.24l-0.65-3.47-0.29-0.03L10.82 11.03 9.22 10.86l-0.49 4.66c-0.08 0.79-1.28 0.67-1.19-0.13L8.03 10.7l-0.49-0.05L7.05 15.34c-0.08 0.8-1.28 0.68-1.2-0.13l0.49-4.65L4.73 10.39l2.36-5.8-0.27-0.03-1.36 3.27c-0.32 0.71-1.29 0.3-0.98-0.46L5.98 3.82c0.16-0.41 0.61-1.11 1.52-1.01l2.19 0.23z"></path><path d="M7.47 1.21a1.31 1.31 0 1 0 2.6 0.28 1.31 1.31 0 1 0-2.6-0.28"></path></g><g id="SvgjsG1310"><use xlink:href="#SvgjsG1307" transform="translate(0, 0) scale(2.5)" fill="rgba(237, 193, 190, 1)"></use><use xlink:href="#SvgjsG1307" transform="translate(0, 87.5) scale(2.5)" fill="rgba(237, 193, 190, 1)"></use><use xlink:href="#SvgjsG1308" transform="translate(0, 175) scale(2.5)" fill="rgba(237, 193, 190, 1)"></use><use xlink:href="#SvgjsG1308" transform="translate(0, 262.5) scale(2.5)" fill="rgba(237, 193, 190, 1)"></use><use xlink:href="#SvgjsG1308" transform="translate(0, 350) scale(2.5)" fill="rgba(237, 193, 190, 1)"></use><use xlink:href="#SvgjsG1307" transform="translate(0, 437.5) scale(2.5)" fill="rgba(237, 193, 190, 1)"></use><use xlink:href="#SvgjsG1309" transform="translate(0, 525) scale(2.5)" fill="rgba(237, 193, 190, 1)"></use><use xlink:href="#SvgjsG1308" transform="translate(87.5, 0) scale(2.5)" fill="rgba(237, 193, 190, 1)"></use><use xlink:href="#SvgjsG1309" transform="translate(87.5, 87.5) scale(2.5)" fill="rgba(237, 193, 190, 1)"></use><use xlink:href="#SvgjsG1307" transform="translate(87.5, 175) scale(2.5)" fill="rgba(237, 193, 190, 1)"></use><use xlink:href="#SvgjsG1307" transform="translate(87.5, 262.5) scale(2.5)" fill="rgba(237, 193, 190, 1)"></use><use xlink:href="#SvgjsG1308" transform="translate(87.5, 350) scale(2.5)" fill="rgba(237, 193, 190, 1)"></use><use xlink:href="#SvgjsG1308" transform="translate(87.5, 437.5) scale(2.5)" fill="rgba(237, 193, 190, 1)"></use><use xlink:href="#SvgjsG1307" transform="translate(87.5, 525) scale(2.5)" fill="rgba(237, 193, 190, 1)"></use><use xlink:href="#SvgjsG1308" transform="translate(175, 0) scale(2.5)" fill="rgba(237, 193, 190, 1)"></use><use xlink:href="#SvgjsG1308" transform="translate(175, 87.5) scale(2.5)" fill="rgba(237, 193, 190, 1)"></use><use xlink:href="#SvgjsG1308" transform="translate(175, 175) scale(2.5)" fill="rgba(237, 193, 190, 1)"></use><use xlink:href="#SvgjsG1309" transform="translate(175, 262.5) scale(2.5)" fill="rgba(237, 193, 190, 1)"></use><use xlink:href="#SvgjsG1308" transform="translate(175, 350) scale(2.5)" fill="rgba(237, 193, 190, 1)"></use><use xlink:href="#SvgjsG1307" transform="translate(175, 437.5) scale(2.5)" fill="rgba(237, 193, 190, 1)"></use><use xlink:href="#SvgjsG1307" transform="translate(175, 525) scale(2.5)" fill="rgba(237, 193, 190, 1)"></use><use xlink:href="#SvgjsG1309" transform="translate(262.5, 0) scale(2.5)" fill="rgba(237, 193, 190, 1)"></use><use xlink:href="#SvgjsG1307" transform="translate(262.5, 87.5) scale(2.5)" fill="rgba(237, 193, 190, 1)"></use><use xlink:href="#SvgjsG1308" transform="translate(262.5, 175) scale(2.5)" fill="rgba(237, 193, 190, 1)"></use><use xlink:href="#SvgjsG1308" transform="translate(262.5, 262.5) scale(2.5)" fill="rgba(237, 193, 190, 1)"></use><use xlink:href="#SvgjsG1307" transform="translate(262.5, 350) scale(2.5)" fill="rgba(237, 193, 190, 1)"></use><use xlink:href="#SvgjsG1308" transform="translate(262.5, 437.5) scale(2.5)" fill="rgba(237, 193, 190, 1)"></use><use xlink:href="#SvgjsG1307" transform="translate(262.5, 525) scale(2.5)" fill="rgba(237, 193, 190, 1)"></use><use xlink:href="#SvgjsG1308" transform="translate(350, 0) scale(2.5)" fill="rgba(237, 193, 190, 1)"></use><use xlink:href="#SvgjsG1308" transform="translate(350, 87.5) scale(2.5)" fill="rgba(237, 193, 190, 1)"></use><use xlink:href="#SvgjsG1307" transform="translate(350, 175) scale(2.5)" fill="rgba(237, 193, 190, 1)"></use><use xlink:href="#SvgjsG1309" transform="translate(350, 262.5) scale(2.5)" fill="rgba(237, 193, 190, 1)"></use><use xlink:href="#SvgjsG1309" transform="translate(350, 350) scale(2.5)" fill="rgba(237, 193, 190, 1)"></use><use xlink:href="#SvgjsG1307" transform="translate(350, 437.5) scale(2.5)" fill="rgba(237, 193, 190, 1)"></use><use xlink:href="#SvgjsG1308" transform="translate(350, 525) scale(2.5)" fill="rgba(237, 193, 190, 1)"></use><use xlink:href="#SvgjsG1307" transform="translate(437.5, 0) scale(2.5)" fill="rgba(237, 193, 190, 1)"></use><use xlink:href="#SvgjsG1309" transform="translate(437.5, 87.5) scale(2.5)" fill="rgba(237, 193, 190, 1)"></use><use xlink:href="#SvgjsG1308" transform="translate(437.5, 175) scale(2.5)" fill="rgba(237, 193, 190, 1)"></use><use xlink:href="#SvgjsG1307" transform="translate(437.5, 262.5) scale(2.5)" fill="rgba(237, 193, 190, 1)"></use><use xlink:href="#SvgjsG1307" transform="translate(437.5, 350) scale(2.5)" fill="rgba(237, 193, 190, 1)"></use><use xlink:href="#SvgjsG1308" transform="translate(437.5, 437.5) scale(2.5)" fill="rgba(237, 193, 190, 1)"></use><use xlink:href="#SvgjsG1307" transform="translate(437.5, 525) scale(2.5)" fill="rgba(237, 193, 190, 1)"></use><use xlink:href="#SvgjsG1309" transform="translate(525, 0) scale(2.5)" fill="rgba(237, 193, 190, 1)"></use><use xlink:href="#SvgjsG1309" transform="translate(525, 87.5) scale(2.5)" fill="rgba(237, 193, 190, 1)"></use><use xlink:href="#SvgjsG1309" transform="translate(525, 175) scale(2.5)" fill="rgba(237, 193, 190, 1)"></use><use xlink:href="#SvgjsG1307" transform="translate(525, 262.5) scale(2.5)" fill="rgba(237, 193, 190, 1)"></use><use xlink:href="#SvgjsG1309" transform="translate(525, 350) scale(2.5)" fill="rgba(237, 193, 190, 1)"></use><use xlink:href="#SvgjsG1307" transform="translate(525, 437.5) scale(2.5)" fill="rgba(237, 193, 190, 1)"></use><use xlink:href="#SvgjsG1308" transform="translate(525, 525) scale(2.5)" fill="rgba(237, 193, 190, 1)"></use><use xlink:href="#SvgjsG1307" transform="translate(612.5, 0) scale(2.5)" fill="rgba(237, 193, 190, 1)"></use><use xlink:href="#SvgjsG1308" transform="translate(612.5, 87.5) scale(2.5)" fill="rgba(237, 193, 190, 1)"></use><use xlink:href="#SvgjsG1308" transform="translate(612.5, 175) scale(2.5)" fill="rgba(237, 193, 190, 1)"></use><use xlink:href="#SvgjsG1307" transform="translate(612.5, 262.5) scale(2.5)" fill="rgba(237, 193, 190, 1)"></use><use xlink:href="#SvgjsG1307" transform="translate(612.5, 350) scale(2.5)" fill="rgba(237, 193, 190, 1)"></use><use xlink:href="#SvgjsG1308" transform="translate(612.5, 437.5) scale(2.5)" fill="rgba(237, 193, 190, 1)"></use><use xlink:href="#SvgjsG1307" transform="translate(612.5, 525) scale(2.5)" fill="rgba(237, 193, 190, 1)"></use><use xlink:href="#SvgjsG1308" transform="translate(700, 0) scale(2.5)" fill="rgba(237, 193, 190, 1)"></use><use xlink:href="#SvgjsG1308" transform="translate(700, 87.5) scale(2.5)" fill="rgba(237, 193, 190, 1)"></use><use xlink:href="#SvgjsG1307" transform="translate(700, 175) scale(2.5)" fill="rgba(237, 193, 190, 1)"></use><use xlink:href="#SvgjsG1309" transform="translate(700, 262.5) scale(2.5)" fill="rgba(237, 193, 190, 1)"></use><use xlink:href="#SvgjsG1307" transform="translate(700, 350) scale(2.5)" fill="rgba(237, 193, 190, 1)"></use><use xlink:href="#SvgjsG1309" transform="translate(700, 437.5) scale(2.5)" fill="rgba(237, 193, 190, 1)"></use><use xlink:href="#SvgjsG1309" transform="translate(700, 525) scale(2.5)" fill="rgba(237, 193, 190, 1)"></use><use xlink:href="#SvgjsG1308" transform="translate(787.5, 0) scale(2.5)" fill="rgba(237, 193, 190, 1)"></use><use xlink:href="#SvgjsG1309" transform="translate(787.5, 87.5) scale(2.5)" fill="rgba(237, 193, 190, 1)"></use><use xlink:href="#SvgjsG1308" transform="translate(787.5, 175) scale(2.5)" fill="rgba(237, 193, 190, 1)"></use><use xlink:href="#SvgjsG1308" transform="translate(787.5, 262.5) scale(2.5)" fill="rgba(237, 193, 190, 1)"></use><use xlink:href="#SvgjsG1308" transform="translate(787.5, 350) scale(2.5)" fill="rgba(237, 193, 190, 1)"></use><use xlink:href="#SvgjsG1307" transform="translate(787.5, 437.5) scale(2.5)" fill="rgba(237, 193, 190, 1)"></use><use xlink:href="#SvgjsG1307" transform="translate(787.5, 525) scale(2.5)" fill="rgba(237, 193, 190, 1)"></use></g></defs></svg>